# xmcd
#
# Track frame offsets: 
#        150
#        24172
#        51276
#        75751
#        92614
#        110062
#        133046
#        160113
#        186362
#
# Disc length: 3359 seconds
#
# Revision: 1
# Processed by: cddbd v1.5.2PL0 Copyright (c) Steve Scherf et al.
# Submitted via: ExactAudioCopy v0.99pb3
#
DISCID=660d1d09
DTITLE=Neil Cowley Trio - Radio Silence
DYEAR=2010
DGENRE=Jazz
TTITLE0=Monoface
TTITLE1=Radio Silence
TTITLE2=Vice Skating
TTITLE3=A French Lesson
TTITLE4=Gerald
TTITLE5=Desert to Rabat
TTITLE6=Stereoface
TTITLE7=Hug the Greyhound
TTITLE8=Portal
EXTD=YEAR: 2009
EXTT0=
EXTT1=
EXTT2=
EXTT3=
EXTT4=
EXTT5=
EXTT6=
EXTT7=
EXTT8=
PLAYORDER=
